<?xml version="1.0" encoding="iso-8859-1"?>
<!-- Uploaded to: SVG Repo, www.svgrepo.com, Generator: SVG Repo Mixer Tools -->
<svg fill="#000000" height="800px" width="800px" version="1.1" id="Layer_1" xmlns="http://www.w3.org/2000/svg" xmlns:xlink="http://www.w3.org/1999/xlink" 
	 viewBox="0 0 350.828 350.828" xml:space="preserve">
<g>
	<g>
		<polygon points="159.667,59.574 118.769,59.574 112.599,59.574 100.705,59.574 100.705,88.415 159.667,88.415 		"/>
		<path d="M332.401,74.565v201.687c10.179,0,18.427-45.148,18.427-100.844S342.579,74.565,332.401,74.565z"/>
		<path d="M172.196,88.41h2.243c7.552,0,13.676,6.123,13.676,13.675s-6.124,13.676-13.676,13.676H88.177
			c-7.552,0-13.676-6.123-13.676-13.676c0-7.552,6.124-13.675,13.676-13.675V59.569H76.462c-16.876,0-30.607,13.732-30.607,30.607
			c0,0.466,0.051,0.922,0.072,1.388H26.015c-6.451,0-12.278,2.437-16.824,6.323c-0.282,0.236-0.573,0.451-0.845,0.696
			c-0.686,0.64-1.306,1.336-1.92,2.048c-0.425,0.486-0.845,0.978-1.234,1.495c-0.481,0.645-0.922,1.311-1.341,2.002
			c-0.425,0.696-0.809,1.413-1.167,2.15c-0.307,0.63-0.609,1.254-0.865,1.91c-0.364,0.932-0.64,1.905-0.896,2.888
			c-0.143,0.548-0.323,1.075-0.43,1.633C0.189,114.291,0,115.909,0,117.583v115.661c0,1.669,0.189,3.292,0.492,4.874
			c0.108,0.558,0.287,1.085,0.43,1.633c0.256,0.983,0.533,1.951,0.896,2.888c0.256,0.655,0.558,1.28,0.865,1.91
			c0.364,0.737,0.742,1.454,1.167,2.15c0.42,0.691,0.86,1.352,1.341,2.002c0.389,0.522,0.809,1.009,1.234,1.495
			c0.614,0.712,1.229,1.403,1.92,2.043c0.271,0.251,0.573,0.466,0.855,0.707c4.547,3.886,10.368,6.318,16.819,6.318h201.441v5.98
			c0,14.367,11.648,26.015,26.015,26.015h30.264V59.584H172.196V88.41z M227.451,72.993c8.52,0,15.421,6.907,15.421,15.421
			c0,8.515-6.907,15.421-15.421,15.421c-8.515,0-15.421-6.907-15.421-15.421C212.029,79.9,218.936,72.993,227.451,72.993z"/>
		<path d="M319.677,64.771h-20.813v-5.202h-4.726v231.675l4.726-0.077v-5.202h20.813v5.202l4.726,0.077V59.569h-4.726V64.771z
			 M319.672,263.852h-20.813v-11.059h20.813V263.852z M319.672,230.674h-20.813v-0.005V219.61h20.813V230.674z M319.672,197.491
			h-20.813v-11.059h20.813V197.491z M319.672,164.308h-20.813v-11.059h20.813V164.308z M319.672,131.131h-20.813v-11.059h20.813
			V131.131z M319.672,97.953h-20.813V86.894h20.813V97.953z"/>
	</g>
</g>
</svg>